ModelForces
version=1
nRows=4
nColumns=155
inDegrees=no

This file contains the forces exerted on a model during a simulation.

A force is a generalized force, meaning that it can be either a force (N) or a torque (Nm).

Units are S.I. units (second, meters, Newtons, ...)
Angles are in degrees.

endheader
time	glut_med1_r	glut_med2_r	glut_med3_r	glut_min1_r	glut_min2_r	glut_min3_r	semimem_r	semiten_r	bifemlh_r	bifemsh_r	sar_r	add_long_r	add_brev_r	add_mag1_r	add_mag2_r	add_mag3_r	tfl_r	pect_r	grac_r	glut_max1_r	glut_max2_r	glut_max3_r	iliacus_r	psoas_r	quad_fem_r	gem_r	peri_r	rect_fem_r	vas_med_r	vas_int_r	vas_lat_r	med_gas_r	lat_gas_r	soleus_r	tib_post_r	flex_dig_r	flex_hal_r	tib_ant_r	per_brev_r	per_long_r	per_tert_r	ext_dig_r	ext_hal_r	glut_med1_l	glut_med2_l	glut_med3_l	glut_min1_l	glut_min2_l	glut_min3_l	semimem_l	semiten_l	bifemlh_l	bifemsh_l	sar_l	add_long_l	add_brev_l	add_mag1_l	add_mag2_l	add_mag3_l	tfl_l	pect_l	grac_l	glut_max1_l	glut_max2_l	glut_max3_l	iliacus_l	psoas_l	quad_fem_l	gem_l	peri_l	rect_fem_l	vas_med_l	vas_int_l	vas_lat_l	med_gas_l	lat_gas_l	soleus_l	tib_post_l	flex_dig_l	flex_hal_l	tib_ant_l	per_brev_l	per_long_l	per_tert_l	ext_dig_l	ext_hal_l	ercspn_r	ercspn_l	intobl_r	intobl_l	extobl_r	extobl_l	femur_lat_meniscii_r.femur_lat_r.force.X	femur_lat_meniscii_r.femur_lat_r.force.Y	femur_lat_meniscii_r.femur_lat_r.force.Z	femur_lat_meniscii_r.femur_lat_r.torque.X	femur_lat_meniscii_r.femur_lat_r.torque.Y	femur_lat_meniscii_r.femur_lat_r.torque.Z	femur_lat_meniscii_r.meniscus_lat_r.force.X	femur_lat_meniscii_r.meniscus_lat_r.force.Y	femur_lat_meniscii_r.meniscus_lat_r.force.Z	femur_lat_meniscii_r.meniscus_lat_r.torque.X	femur_lat_meniscii_r.meniscus_lat_r.torque.Y	femur_lat_meniscii_r.meniscus_lat_r.torque.Z	femur_med_meniscii_r.femur_med_r.force.X	femur_med_meniscii_r.femur_med_r.force.Y	femur_med_meniscii_r.femur_med_r.force.Z	femur_med_meniscii_r.femur_med_r.torque.X	femur_med_meniscii_r.femur_med_r.torque.Y	femur_med_meniscii_r.femur_med_r.torque.Z	femur_med_meniscii_r.meniscus_med_r.force.X	femur_med_meniscii_r.meniscus_med_r.force.Y	femur_med_meniscii_r.meniscus_med_r.force.Z	femur_med_meniscii_r.meniscus_med_r.torque.X	femur_med_meniscii_r.meniscus_med_r.torque.Y	femur_med_meniscii_r.meniscus_med_r.torque.Z	femur_med_tibia_r.tibia_upper_r.force.X	femur_med_tibia_r.tibia_upper_r.force.Y	femur_med_tibia_r.tibia_upper_r.force.Z	femur_med_tibia_r.tibia_upper_r.torque.X	femur_med_tibia_r.tibia_upper_r.torque.Y	femur_med_tibia_r.tibia_upper_r.torque.Z	femur_med_tibia_r.femur_med_r.force.X	femur_med_tibia_r.femur_med_r.force.Y	femur_med_tibia_r.femur_med_r.force.Z	femur_med_tibia_r.femur_med_r.torque.X	femur_med_tibia_r.femur_med_r.torque.Y	femur_med_tibia_r.femur_med_r.torque.Z	femur_lat_tibia_r.tibia_upper_r.force.X	femur_lat_tibia_r.tibia_upper_r.force.Y	femur_lat_tibia_r.tibia_upper_r.force.Z	femur_lat_tibia_r.tibia_upper_r.torque.X	femur_lat_tibia_r.tibia_upper_r.torque.Y	femur_lat_tibia_r.tibia_upper_r.torque.Z	femur_lat_tibia_r.femur_lat_r.force.X	femur_lat_tibia_r.femur_lat_r.force.Y	femur_lat_tibia_r.femur_lat_r.force.Z	femur_lat_tibia_r.femur_lat_r.torque.X	femur_lat_tibia_r.femur_lat_r.torque.Y	femur_lat_tibia_r.femur_lat_r.torque.Z	aACL_R	pACL_R	aPCL_R	pPCL_R	aMCL_R	mMCL_R	pMCL_R	aLCL_R	mLCL_R	pLCL_R	aPCL_L	pPCL_L	aMCL_L	aLCL_L
      0.16699305	     11.31338065	      8.26023915	      8.88319090	      3.81547638	      4.43756503	      4.79487548	      0.00000000	    167.54029873	    135.73546292	    292.99541762	    130.81901150	      8.22006098	      5.92246995	      3.86338895	      3.60131283	      6.06557034	      4.87873356	      3.22034587	    100.23923538	      5.33329872	      8.11311937	      6.09590409	     27.38981125	     18.34974283	      5.24555927	      3.63004189	      6.21475029	     56.02112663	     31.23713744	     33.22825100	     44.72351628	      0.00000000	      0.00000000	      0.00000000	      0.00000000	      0.00000000	      0.00000000	     34.50948296	      2.37123280	      3.02287862	     26.40932841	     43.82234262	     11.19624489	     11.31338065	      8.26023915	      8.88319090	      3.81547638	      4.43756503	      4.79487548	      0.00000000	      6.11721945	     12.07862251	     10.44048733	      2.17712283	      8.22006098	      5.92246995	      3.86338895	      3.60131283	      6.06557034	      5.38264221	      3.22034587	      2.24709971	      5.33329872	      8.11311937	      6.09590409	     27.38981125	     18.34974283	      5.24555927	      3.63004189	      6.21475029	     16.80975664	      0.00000000	      0.00000000	      0.00000000	     21.10695045	      9.96345855	     50.30302975	     50.71888132	      5.39239964	      4.82357597	     13.08884906	      6.99704155	     18.02559007	      2.83723435	      8.72642008	      2.74336246	     35.91309607	     35.91309607	     13.33337235	     13.33337235	     30.71048647	     30.71048647	    103.44149170	    167.30727500	     19.76059734	    -11.98820440	      2.50501336	     40.57824760	   -103.44149170	   -167.30727500	    -19.76059734	      4.61123495	     -3.08285801	      2.93067687	     24.00717176	     19.35984641	     10.54433842	     -3.81158054	     -0.54191104	      9.63332369	    -24.00717176	    -19.35984641	    -10.54433842	     -0.23436289	      0.28244615	      0.05480041	   -797.14023938	   -695.49266421	    226.13070808	    -15.94024342	     17.90472406	     -1.12654700	    797.14023938	    695.49266421	   -226.13070808	    104.44880664	    -14.39626172	    323.92148143	      0.00000000	      0.00000000	      0.00000000	      0.00000000	      0.00000000	      0.00000000	      0.00000000	      0.00000000	      0.00000000	      0.00000000	      0.00000000	      0.00000000	     -4.30151677	      0.00000000	    605.95156998	    390.47192227	      0.00000000	      0.00000000	      0.00000000	      0.00000000	      0.00000000	      0.00000000	      0.00000000	      0.00000000	      0.00000001	      0.00000000
      0.16723783	     11.30180186	      8.25187827	      8.87409154	      3.81177292	      4.43351372	      4.78969960	      0.00000000	    167.52290638	    135.81474301	    293.10375710	    130.79155254	      8.21164489	      5.91677486	      3.88656544	      3.59760102	      6.05884403	      4.86894325	      3.21719778	    100.20551460	      5.32787954	      8.10485687	      6.08959905	     27.37441046	     18.33218091	      5.24035678	      3.62750240	      6.21191694	     56.22574794	     31.07283272	     33.17898132	     44.71973075	      0.00000000	      0.00000000	      0.00000000	      0.00000000	      0.00000000	      0.00000000	     34.54657246	      2.36346622	      3.02348154	     26.77003641	     43.96932339	     11.23542127	     11.30180186	      8.25187827	      8.87409154	      3.81177292	      4.43351372	      4.78969960	      0.00000000	      6.11063281	     12.06570946	     10.43012077	      2.17501950	      8.21164489	      5.91677486	      3.88656544	      3.59760102	      6.05884403	      5.37849586	      3.21719778	      2.24489059	      5.32787954	      8.10485687	      6.08959905	     27.37441046	     18.33218091	      5.24035678	      3.62750240	      6.21191694	     16.79029896	      0.00000000	      0.00000000	      0.00000000	     21.10029838	      9.95948678	     50.25511492	     50.69403415	      5.38668945	      4.81828927	     13.07448534	      6.98891618	     18.01026645	      2.83452874	      8.71675430	      2.74055239	     35.87815898	     35.87815898	     13.31935437	     13.31935437	     30.69778262	     30.69778262	    104.85375453	    166.02753309	     19.55705981	    -11.86437064	      2.54250553	     41.16938608	   -104.85375453	   -166.02753309	    -19.55705981	      4.56399560	     -3.11955742	      2.86986333	     24.10936071	     19.34824683	     10.44712684	     -3.77225969	     -0.54321337	      9.67243499	    -24.10936071	    -19.34824683	    -10.44712684	     -0.23643547	      0.28507543	      0.05670831	   -800.03373324	   -694.70536494	    227.05886908	    -15.93077496	     17.98228508	     -1.11898632	    800.03373324	    694.70536494	   -227.05886908	    104.80806705	    -14.45183072	    325.07663514	      0.00000000	      0.00000000	      0.00000000	      0.00000000	      0.00000000	      0.00000000	      0.00000000	      0.00000000	      0.00000000	      0.00000000	      0.00000000	      0.00000000	     -4.26482100	      0.00000000	    608.43133993	    391.73508300	      0.00000000	      0.00000000	      0.00000000	      0.00000000	      0.00000000	      0.00000000	      0.00000000	      0.00000000	      0.00000001	      0.00000000
      0.16744923	     11.29182248	      8.24467982	      8.86625735	      3.80858427	      4.43002567	      4.78524319	      0.00000000	    167.50729338	    135.88541168	    293.19817405	    130.76789791	      8.20439897	      5.91187139	      3.90474992	      3.59440530	      6.05305288	      4.86043519	      3.21448732	    100.17645323	      5.32321388	      8.09774322	      6.08417072	     27.36115146	     18.31706146	      5.23587754	      3.62531614	      6.20945274	     56.41313857	     31.04646175	     33.16542197	     44.71130848	      0.00000000	      0.00000000	      0.00000000	      0.00000000	      0.00000000	      0.00000000	     34.57776528	      2.35683280	      3.02403466	     26.91780587	     44.10531091	     11.26731566	     11.29182248	      8.24467982	      8.86625735	      3.80858427	      4.43002567	      4.78524319	      0.00000000	      6.10496202	     12.05457924	     10.42119542	      2.17320853	      8.20439897	      5.91187139	      3.90474992	      3.59440530	      6.05305288	      5.37492582	      3.21448732	      2.24298857	      5.32321388	      8.09774322	      6.08417072	     27.36115146	     18.31706146	      5.23587754	      3.62531614	      6.20945274	     16.77354392	      0.00000000	      0.00000000	      0.00000000	     21.09449855	      9.95603312	     50.21375953	     50.67262565	      5.38174178	      4.81370114	     13.06211150	      6.98191722	     17.99705644	      2.83219941	      8.70848636	      2.73815479	     35.84807847	     35.84807847	     13.30728554	     13.30728554	     30.68684563	     30.68684563	    105.05033940	    166.67964364	     19.82979145	    -11.99318353	      2.54792823	     41.23648476	   -105.05033940	   -166.67964364	    -19.82979145	      4.58830856	     -3.13215204	      2.90229741	     24.10284465	     19.17706006	     10.36922002	     -3.74443360	     -0.54249707	      9.66970844	    -24.10284465	    -19.17706006	    -10.36922002	     -0.23468012	      0.28553344	      0.05481921	   -802.27357850	   -694.36604648	    227.19704187	    -15.90882263	     18.02440291	     -1.09628592	    802.27357850	    694.36604648	   -227.19704187	    104.84866206	    -14.48853529	    325.96525897	      0.00000000	      0.00000000	      0.00000000	      0.00000000	      0.00000000	      0.00000000	      0.00000000	      0.00000000	      0.00000000	      0.00000000	      0.00000000	      0.00000000	     -4.24283031	      0.00000000	    610.58395062	    392.86532989	      0.00000000	      0.00000000	      0.00000000	      0.00000000	      0.00000000	      0.00000000	      0.00000000	      0.00000000	      0.00000001	      0.00000000
      0.16768701	     11.28061971	      8.23660707	      8.85747171	      3.80500823	      4.42611395	      4.78024538	      0.00000000	    167.49035256	    135.96850646	    293.31200588	    130.74236602	      8.19627305	      5.90637216	      3.92334574	      3.59082146	      6.04655834	      4.85080766	      3.21144758	    100.14472063	      5.31798162	      8.08976569	      6.07808320	     27.34628269	     18.30010650	      5.23085421	      3.62286451	      6.20666195	     56.62770159	     31.03468473	     33.15670221	     44.70148105	      0.00000000	      0.00000000	      0.00000000	      0.00000000	      0.00000000	      0.00000000	     34.61220492	      2.34948139	      3.02472252	     26.56206966	     44.25793379	     11.30287277	     11.28061971	      8.23660707	      8.85747171	      3.80500823	      4.42611395	      4.78024538	      0.00000000	      6.09860258	     12.04208349	     10.41118592	      2.17117755	      8.19627305	      5.90637216	      3.92334574	      3.59082146	      6.04655834	      5.37092201	      3.21144758	      2.24085550	      5.31798162	      8.08976569	      6.07808320	     27.34628269	     18.30010650	      5.23085421	      3.62286451	      6.20666195	     16.75475097	      0.00000000	      0.00000000	      0.00000000	     21.08791408	      9.95212233	     50.16726897	     50.64859951	      5.37615828	      4.80851517	     13.04822697	      6.97406458	     17.98222347	      2.82958727	      8.69927375	      2.73548998	     35.81434354	     35.81434354	     13.29375105	     13.29375105	     30.67458092	     30.67458092	    105.48576749	    167.13939556	     20.00181636	    -12.07774690	      2.55791992	     41.40293927	   -105.48576749	   -167.13939556	    -20.00181636	      4.60698588	     -3.14772323	      2.92495150	     24.21216005	     18.98251786	     10.21643916	     -3.68792181	     -0.54427636	      9.71323513	    -24.21216005	    -18.98251786	    -10.21643916	     -0.23272494	      0.28983615	      0.05114960	   -804.49938490	   -693.94258123	    227.84180768	    -15.89633624	     18.08154234	     -1.06451751	    804.49938490	    693.94258123	   -227.84180768	    105.09573318	    -14.52879469	    326.84433641	      0.00000000	      0.00000000	      0.00000000	      0.00000000	      0.00000000	      0.00000000	      0.00000000	      0.00000000	      0.00000000	      0.00000000	      0.00000000	      0.00000000	     -4.18284117	      0.00000000	    612.97492795	    394.06770751	      0.00000000	      0.00000000	      0.00000000	      0.00000000	      0.00000000	      0.00000000	      0.00000000	      0.00000000	      0.00000001	      0.00000000
